<mxfile host="Electron" agent="Mozilla/5.0 (Windows NT 10.0; Win64; x64) AppleWebKit/537.36 (KHTML, like Gecko) draw.io/24.7.5 Chrome/126.0.6478.183 Electron/31.3.0 Safari/537.36" version="24.7.5">
  <diagram id="C5RBs43oDa-KdzZeNtuy" name="Page-1">
    <mxGraphModel dx="780" dy="544" grid="1" gridSize="10" guides="1" tooltips="1" connect="1" arrows="1" fold="1" page="1" pageScale="1" pageWidth="827" pageHeight="1169" math="0" shadow="0">
      <root>
        <mxCell id="WIyWlLk6GJQsqaUBKTNV-0" />
        <mxCell id="WIyWlLk6GJQsqaUBKTNV-1" parent="WIyWlLk6GJQsqaUBKTNV-0" />
        <mxCell id="zkfFHV4jXpPFQw0GAbJ--0" value="Main" style="swimlane;fontStyle=2;align=center;verticalAlign=top;childLayout=stackLayout;horizontal=1;startSize=26;horizontalStack=0;resizeParent=1;resizeLast=0;collapsible=1;marginBottom=0;rounded=0;shadow=0;strokeWidth=1;" parent="WIyWlLk6GJQsqaUBKTNV-1" vertex="1">
          <mxGeometry x="37.5" y="20" width="160" height="80" as="geometry">
            <mxRectangle x="230" y="140" width="160" height="26" as="alternateBounds" />
          </mxGeometry>
        </mxCell>
        <mxCell id="zkfFHV4jXpPFQw0GAbJ--4" value="" style="line;html=1;strokeWidth=1;align=left;verticalAlign=middle;spacingTop=-1;spacingLeft=3;spacingRight=3;rotatable=0;labelPosition=right;points=[];portConstraint=eastwest;" parent="zkfFHV4jXpPFQw0GAbJ--0" vertex="1">
          <mxGeometry y="26" width="160" height="24" as="geometry" />
        </mxCell>
        <mxCell id="zkfFHV4jXpPFQw0GAbJ--5" value=" + main(args: String[]): void" style="text;align=left;verticalAlign=top;spacingLeft=4;spacingRight=4;overflow=hidden;rotatable=0;points=[[0,0.5],[1,0.5]];portConstraint=eastwest;" parent="zkfFHV4jXpPFQw0GAbJ--0" vertex="1">
          <mxGeometry y="50" width="160" height="30" as="geometry" />
        </mxCell>
        <mxCell id="zkfFHV4jXpPFQw0GAbJ--6" value="&lt;&lt;abstract&gt;&gt;&#xa;Pizza" style="swimlane;fontStyle=0;align=center;verticalAlign=top;childLayout=stackLayout;horizontal=1;startSize=40;horizontalStack=0;resizeParent=1;resizeLast=0;collapsible=1;marginBottom=0;rounded=0;shadow=0;strokeWidth=1;" parent="WIyWlLk6GJQsqaUBKTNV-1" vertex="1">
          <mxGeometry x="10" y="138" width="240" height="180" as="geometry">
            <mxRectangle x="130" y="380" width="160" height="26" as="alternateBounds" />
          </mxGeometry>
        </mxCell>
        <mxCell id="zkfFHV4jXpPFQw0GAbJ--9" value="" style="line;html=1;strokeWidth=1;align=left;verticalAlign=middle;spacingTop=-1;spacingLeft=3;spacingRight=3;rotatable=0;labelPosition=right;points=[];portConstraint=eastwest;" parent="zkfFHV4jXpPFQw0GAbJ--6" vertex="1">
          <mxGeometry y="40" width="240" height="40" as="geometry" />
        </mxCell>
        <mxCell id="zkfFHV4jXpPFQw0GAbJ--10" value="- crearAmasador(): Amasado (abstract) &#xa;- crearHorneador(): Horneado (abstract) &#xa;- crearMoldeador(): Moldeado (abstract) &#xa;- obtenerTipoPizza(): String (abstract) &#xa;+ prepararPizza(tam: Tamano): void" style="text;align=left;verticalAlign=top;spacingLeft=4;spacingRight=4;overflow=hidden;rotatable=0;points=[[0,0.5],[1,0.5]];portConstraint=eastwest;fontStyle=0" parent="zkfFHV4jXpPFQw0GAbJ--6" vertex="1">
          <mxGeometry y="80" width="240" height="100" as="geometry" />
        </mxCell>
        <mxCell id="zkfFHV4jXpPFQw0GAbJ--13" value="PizzaDelgada" style="swimlane;fontStyle=0;align=center;verticalAlign=top;childLayout=stackLayout;horizontal=1;startSize=26;horizontalStack=0;resizeParent=1;resizeLast=0;collapsible=1;marginBottom=0;rounded=0;shadow=0;strokeWidth=1;" parent="WIyWlLk6GJQsqaUBKTNV-1" vertex="1">
          <mxGeometry x="380" y="350" width="175" height="110" as="geometry">
            <mxRectangle x="340" y="380" width="170" height="26" as="alternateBounds" />
          </mxGeometry>
        </mxCell>
        <mxCell id="zkfFHV4jXpPFQw0GAbJ--15" value="" style="line;html=1;strokeWidth=1;align=left;verticalAlign=middle;spacingTop=-1;spacingLeft=3;spacingRight=3;rotatable=0;labelPosition=right;points=[];portConstraint=eastwest;" parent="zkfFHV4jXpPFQw0GAbJ--13" vertex="1">
          <mxGeometry y="26" width="175" height="14" as="geometry" />
        </mxCell>
        <mxCell id="V5urwpfPDVQoyYHqRh3s-0" value="+ crearAmasador(): Amasado&amp;nbsp;&lt;br&gt;+ crearHorneador(): Horneado&amp;nbsp;&lt;br&gt;+ crearMoldeador(): Moldeado&amp;nbsp;&lt;br&gt;+ obtenerTipoPizza(): String" style="text;html=1;align=center;verticalAlign=middle;resizable=0;points=[];autosize=1;strokeColor=none;fillColor=none;" vertex="1" parent="zkfFHV4jXpPFQw0GAbJ--13">
          <mxGeometry y="40" width="175" height="70" as="geometry" />
        </mxCell>
        <mxCell id="zkfFHV4jXpPFQw0GAbJ--17" value="&lt;enum&gt;&#xa;Tamano" style="swimlane;fontStyle=0;align=center;verticalAlign=top;childLayout=stackLayout;horizontal=1;startSize=40;horizontalStack=0;resizeParent=1;resizeLast=0;collapsible=1;marginBottom=0;rounded=0;shadow=0;strokeWidth=1;" parent="WIyWlLk6GJQsqaUBKTNV-1" vertex="1">
          <mxGeometry x="270" y="238" width="160" height="80" as="geometry">
            <mxRectangle x="550" y="140" width="160" height="26" as="alternateBounds" />
          </mxGeometry>
        </mxCell>
        <mxCell id="zkfFHV4jXpPFQw0GAbJ--24" value="+ PEQUENA &#xa;+ MEDIANA" style="text;align=left;verticalAlign=top;spacingLeft=4;spacingRight=4;overflow=hidden;rotatable=0;points=[[0,0.5],[1,0.5]];portConstraint=eastwest;" parent="zkfFHV4jXpPFQw0GAbJ--17" vertex="1">
          <mxGeometry y="40" width="160" height="40" as="geometry" />
        </mxCell>
        <mxCell id="V5urwpfPDVQoyYHqRh3s-1" value="PizzaGruesa" style="swimlane;fontStyle=0;align=center;verticalAlign=top;childLayout=stackLayout;horizontal=1;startSize=26;horizontalStack=0;resizeParent=1;resizeLast=0;collapsible=1;marginBottom=0;rounded=0;shadow=0;strokeWidth=1;" vertex="1" parent="WIyWlLk6GJQsqaUBKTNV-1">
          <mxGeometry x="10" y="350" width="175" height="110" as="geometry">
            <mxRectangle x="340" y="380" width="170" height="26" as="alternateBounds" />
          </mxGeometry>
        </mxCell>
        <mxCell id="V5urwpfPDVQoyYHqRh3s-2" value="" style="line;html=1;strokeWidth=1;align=left;verticalAlign=middle;spacingTop=-1;spacingLeft=3;spacingRight=3;rotatable=0;labelPosition=right;points=[];portConstraint=eastwest;" vertex="1" parent="V5urwpfPDVQoyYHqRh3s-1">
          <mxGeometry y="26" width="175" height="14" as="geometry" />
        </mxCell>
        <mxCell id="V5urwpfPDVQoyYHqRh3s-3" value="+ crearAmasador(): Amasado&amp;nbsp;&lt;br&gt;+ crearHorneador(): Horneado&amp;nbsp;&lt;br&gt;+ crearMoldeador(): Moldeado&amp;nbsp;&lt;br&gt;+ obtenerTipoPizza(): String" style="text;html=1;align=center;verticalAlign=middle;resizable=0;points=[];autosize=1;strokeColor=none;fillColor=none;" vertex="1" parent="V5urwpfPDVQoyYHqRh3s-1">
          <mxGeometry y="40" width="175" height="70" as="geometry" />
        </mxCell>
        <mxCell id="V5urwpfPDVQoyYHqRh3s-4" value="PizzaIntegral" style="swimlane;fontStyle=0;align=center;verticalAlign=top;childLayout=stackLayout;horizontal=1;startSize=26;horizontalStack=0;resizeParent=1;resizeLast=0;collapsible=1;marginBottom=0;rounded=0;shadow=0;strokeWidth=1;" vertex="1" parent="WIyWlLk6GJQsqaUBKTNV-1">
          <mxGeometry x="197.5" y="350" width="175" height="110" as="geometry">
            <mxRectangle x="340" y="380" width="170" height="26" as="alternateBounds" />
          </mxGeometry>
        </mxCell>
        <mxCell id="V5urwpfPDVQoyYHqRh3s-5" value="" style="line;html=1;strokeWidth=1;align=left;verticalAlign=middle;spacingTop=-1;spacingLeft=3;spacingRight=3;rotatable=0;labelPosition=right;points=[];portConstraint=eastwest;" vertex="1" parent="V5urwpfPDVQoyYHqRh3s-4">
          <mxGeometry y="26" width="175" height="14" as="geometry" />
        </mxCell>
        <mxCell id="V5urwpfPDVQoyYHqRh3s-6" value="+ crearAmasador(): Amasado&amp;nbsp;&lt;br&gt;+ crearHorneador(): Horneado&amp;nbsp;&lt;br&gt;+ crearMoldeador(): Moldeado&amp;nbsp;&lt;br&gt;+ obtenerTipoPizza(): String" style="text;html=1;align=center;verticalAlign=middle;resizable=0;points=[];autosize=1;strokeColor=none;fillColor=none;" vertex="1" parent="V5urwpfPDVQoyYHqRh3s-4">
          <mxGeometry y="40" width="175" height="70" as="geometry" />
        </mxCell>
        <mxCell id="V5urwpfPDVQoyYHqRh3s-7" value="&lt;&lt;interface&gt;&gt;&#xa; IMoldeado " style="swimlane;fontStyle=0;align=center;verticalAlign=top;childLayout=stackLayout;horizontal=1;startSize=40;horizontalStack=0;resizeParent=1;resizeLast=0;collapsible=1;marginBottom=0;rounded=0;shadow=0;strokeWidth=1;" vertex="1" parent="WIyWlLk6GJQsqaUBKTNV-1">
          <mxGeometry x="570" y="60" width="183" height="100" as="geometry">
            <mxRectangle x="340" y="380" width="170" height="26" as="alternateBounds" />
          </mxGeometry>
        </mxCell>
        <mxCell id="V5urwpfPDVQoyYHqRh3s-8" value="" style="line;html=1;strokeWidth=1;align=left;verticalAlign=middle;spacingTop=-1;spacingLeft=3;spacingRight=3;rotatable=0;labelPosition=right;points=[];portConstraint=eastwest;" vertex="1" parent="V5urwpfPDVQoyYHqRh3s-7">
          <mxGeometry y="40" width="183" height="14" as="geometry" />
        </mxCell>
        <mxCell id="V5urwpfPDVQoyYHqRh3s-9" value="+ moldearPizzaMediana(): void&lt;div&gt;&amp;nbsp;+ moldearPizzaPequena(): void&lt;/div&gt;" style="text;html=1;align=center;verticalAlign=middle;resizable=0;points=[];autosize=1;strokeColor=none;fillColor=none;" vertex="1" parent="V5urwpfPDVQoyYHqRh3s-7">
          <mxGeometry y="54" width="183" height="40" as="geometry" />
        </mxCell>
        <mxCell id="V5urwpfPDVQoyYHqRh3s-10" value="&lt;&lt;interface&gt;&gt;&#xa; IAmasado" style="swimlane;fontStyle=0;align=center;verticalAlign=top;childLayout=stackLayout;horizontal=1;startSize=40;horizontalStack=0;resizeParent=1;resizeLast=0;collapsible=1;marginBottom=0;rounded=0;shadow=0;strokeWidth=1;" vertex="1" parent="WIyWlLk6GJQsqaUBKTNV-1">
          <mxGeometry x="980" y="60" width="187" height="90" as="geometry">
            <mxRectangle x="340" y="380" width="170" height="26" as="alternateBounds" />
          </mxGeometry>
        </mxCell>
        <mxCell id="V5urwpfPDVQoyYHqRh3s-11" value="" style="line;html=1;strokeWidth=1;align=left;verticalAlign=middle;spacingTop=-1;spacingLeft=3;spacingRight=3;rotatable=0;labelPosition=right;points=[];portConstraint=eastwest;" vertex="1" parent="V5urwpfPDVQoyYHqRh3s-10">
          <mxGeometry y="40" width="187" height="14" as="geometry" />
        </mxCell>
        <mxCell id="V5urwpfPDVQoyYHqRh3s-12" value="+ amasar(): void" style="text;html=1;align=center;verticalAlign=middle;resizable=0;points=[];autosize=1;strokeColor=none;fillColor=none;" vertex="1" parent="V5urwpfPDVQoyYHqRh3s-10">
          <mxGeometry y="54" width="187" height="30" as="geometry" />
        </mxCell>
        <mxCell id="V5urwpfPDVQoyYHqRh3s-13" value="&lt;&lt;interface&gt;&gt;&#xa; IHorneado" style="swimlane;fontStyle=0;align=center;verticalAlign=top;childLayout=stackLayout;horizontal=1;startSize=40;horizontalStack=0;resizeParent=1;resizeLast=0;collapsible=1;marginBottom=0;rounded=0;shadow=0;strokeWidth=1;" vertex="1" parent="WIyWlLk6GJQsqaUBKTNV-1">
          <mxGeometry x="1420" y="60" width="187" height="90" as="geometry">
            <mxRectangle x="340" y="380" width="170" height="26" as="alternateBounds" />
          </mxGeometry>
        </mxCell>
        <mxCell id="V5urwpfPDVQoyYHqRh3s-14" value="" style="line;html=1;strokeWidth=1;align=left;verticalAlign=middle;spacingTop=-1;spacingLeft=3;spacingRight=3;rotatable=0;labelPosition=right;points=[];portConstraint=eastwest;" vertex="1" parent="V5urwpfPDVQoyYHqRh3s-13">
          <mxGeometry y="40" width="187" height="14" as="geometry" />
        </mxCell>
        <mxCell id="V5urwpfPDVQoyYHqRh3s-15" value="+ hornear(): void" style="text;html=1;align=center;verticalAlign=middle;resizable=0;points=[];autosize=1;strokeColor=none;fillColor=none;" vertex="1" parent="V5urwpfPDVQoyYHqRh3s-13">
          <mxGeometry y="54" width="187" height="30" as="geometry" />
        </mxCell>
        <mxCell id="V5urwpfPDVQoyYHqRh3s-17" value="MoldearPizzaDelgada " style="swimlane;fontStyle=0;align=center;verticalAlign=top;childLayout=stackLayout;horizontal=1;startSize=22;horizontalStack=0;resizeParent=1;resizeLast=0;collapsible=1;marginBottom=0;rounded=0;shadow=0;strokeWidth=1;" vertex="1" parent="WIyWlLk6GJQsqaUBKTNV-1">
          <mxGeometry x="470" y="178" width="187" height="82" as="geometry">
            <mxRectangle x="340" y="380" width="170" height="26" as="alternateBounds" />
          </mxGeometry>
        </mxCell>
        <mxCell id="V5urwpfPDVQoyYHqRh3s-18" value="" style="line;html=1;strokeWidth=1;align=left;verticalAlign=middle;spacingTop=-1;spacingLeft=3;spacingRight=3;rotatable=0;labelPosition=right;points=[];portConstraint=eastwest;" vertex="1" parent="V5urwpfPDVQoyYHqRh3s-17">
          <mxGeometry y="22" width="187" height="14" as="geometry" />
        </mxCell>
        <mxCell id="V5urwpfPDVQoyYHqRh3s-19" value="+ moldearPizzaMediana(): void&lt;div&gt;&amp;nbsp;+ moldearPizzaPequena(): void&lt;br&gt;&lt;/div&gt;" style="text;html=1;align=center;verticalAlign=middle;resizable=0;points=[];autosize=1;strokeColor=none;fillColor=none;" vertex="1" parent="V5urwpfPDVQoyYHqRh3s-17">
          <mxGeometry y="36" width="187" height="40" as="geometry" />
        </mxCell>
        <mxCell id="V5urwpfPDVQoyYHqRh3s-20" value="MoldearPizzaIntegral" style="swimlane;fontStyle=0;align=center;verticalAlign=top;childLayout=stackLayout;horizontal=1;startSize=22;horizontalStack=0;resizeParent=1;resizeLast=0;collapsible=1;marginBottom=0;rounded=0;shadow=0;strokeWidth=1;" vertex="1" parent="WIyWlLk6GJQsqaUBKTNV-1">
          <mxGeometry x="667" y="178" width="187" height="82" as="geometry">
            <mxRectangle x="340" y="380" width="170" height="26" as="alternateBounds" />
          </mxGeometry>
        </mxCell>
        <mxCell id="V5urwpfPDVQoyYHqRh3s-21" value="" style="line;html=1;strokeWidth=1;align=left;verticalAlign=middle;spacingTop=-1;spacingLeft=3;spacingRight=3;rotatable=0;labelPosition=right;points=[];portConstraint=eastwest;" vertex="1" parent="V5urwpfPDVQoyYHqRh3s-20">
          <mxGeometry y="22" width="187" height="14" as="geometry" />
        </mxCell>
        <mxCell id="V5urwpfPDVQoyYHqRh3s-22" value="+ moldearPizzaMediana(): void&lt;div&gt;&amp;nbsp;+ moldearPizzaPequena(): void&lt;br&gt;&lt;/div&gt;" style="text;html=1;align=center;verticalAlign=middle;resizable=0;points=[];autosize=1;strokeColor=none;fillColor=none;" vertex="1" parent="V5urwpfPDVQoyYHqRh3s-20">
          <mxGeometry y="36" width="187" height="40" as="geometry" />
        </mxCell>
        <mxCell id="V5urwpfPDVQoyYHqRh3s-23" value="MoldearPizzaGruesa" style="swimlane;fontStyle=0;align=center;verticalAlign=top;childLayout=stackLayout;horizontal=1;startSize=22;horizontalStack=0;resizeParent=1;resizeLast=0;collapsible=1;marginBottom=0;rounded=0;shadow=0;strokeWidth=1;" vertex="1" parent="WIyWlLk6GJQsqaUBKTNV-1">
          <mxGeometry x="570" y="268" width="187" height="82" as="geometry">
            <mxRectangle x="340" y="380" width="170" height="26" as="alternateBounds" />
          </mxGeometry>
        </mxCell>
        <mxCell id="V5urwpfPDVQoyYHqRh3s-24" value="" style="line;html=1;strokeWidth=1;align=left;verticalAlign=middle;spacingTop=-1;spacingLeft=3;spacingRight=3;rotatable=0;labelPosition=right;points=[];portConstraint=eastwest;" vertex="1" parent="V5urwpfPDVQoyYHqRh3s-23">
          <mxGeometry y="22" width="187" height="14" as="geometry" />
        </mxCell>
        <mxCell id="V5urwpfPDVQoyYHqRh3s-25" value="+ moldearPizzaMediana(): void&lt;div&gt;&amp;nbsp;+ moldearPizzaPequena(): void&lt;br&gt;&lt;/div&gt;" style="text;html=1;align=center;verticalAlign=middle;resizable=0;points=[];autosize=1;strokeColor=none;fillColor=none;" vertex="1" parent="V5urwpfPDVQoyYHqRh3s-23">
          <mxGeometry y="36" width="187" height="40" as="geometry" />
        </mxCell>
        <mxCell id="V5urwpfPDVQoyYHqRh3s-26" value="AmasarPizzaDelgada" style="swimlane;fontStyle=0;align=center;verticalAlign=top;childLayout=stackLayout;horizontal=1;startSize=22;horizontalStack=0;resizeParent=1;resizeLast=0;collapsible=1;marginBottom=0;rounded=0;shadow=0;strokeWidth=1;" vertex="1" parent="WIyWlLk6GJQsqaUBKTNV-1">
          <mxGeometry x="880" y="178" width="187" height="72" as="geometry">
            <mxRectangle x="340" y="380" width="170" height="26" as="alternateBounds" />
          </mxGeometry>
        </mxCell>
        <mxCell id="V5urwpfPDVQoyYHqRh3s-27" value="" style="line;html=1;strokeWidth=1;align=left;verticalAlign=middle;spacingTop=-1;spacingLeft=3;spacingRight=3;rotatable=0;labelPosition=right;points=[];portConstraint=eastwest;" vertex="1" parent="V5urwpfPDVQoyYHqRh3s-26">
          <mxGeometry y="22" width="187" height="14" as="geometry" />
        </mxCell>
        <mxCell id="V5urwpfPDVQoyYHqRh3s-28" value="+ amasar(): void" style="text;html=1;align=center;verticalAlign=middle;resizable=0;points=[];autosize=1;strokeColor=none;fillColor=none;" vertex="1" parent="V5urwpfPDVQoyYHqRh3s-26">
          <mxGeometry y="36" width="187" height="30" as="geometry" />
        </mxCell>
        <mxCell id="V5urwpfPDVQoyYHqRh3s-29" value="AmasarPizzaIntegral" style="swimlane;fontStyle=0;align=center;verticalAlign=top;childLayout=stackLayout;horizontal=1;startSize=22;horizontalStack=0;resizeParent=1;resizeLast=0;collapsible=1;marginBottom=0;rounded=0;shadow=0;strokeWidth=1;" vertex="1" parent="WIyWlLk6GJQsqaUBKTNV-1">
          <mxGeometry x="1080" y="178" width="187" height="72" as="geometry">
            <mxRectangle x="340" y="380" width="170" height="26" as="alternateBounds" />
          </mxGeometry>
        </mxCell>
        <mxCell id="V5urwpfPDVQoyYHqRh3s-30" value="" style="line;html=1;strokeWidth=1;align=left;verticalAlign=middle;spacingTop=-1;spacingLeft=3;spacingRight=3;rotatable=0;labelPosition=right;points=[];portConstraint=eastwest;" vertex="1" parent="V5urwpfPDVQoyYHqRh3s-29">
          <mxGeometry y="22" width="187" height="14" as="geometry" />
        </mxCell>
        <mxCell id="V5urwpfPDVQoyYHqRh3s-31" value="+ amasar(): void" style="text;html=1;align=center;verticalAlign=middle;resizable=0;points=[];autosize=1;strokeColor=none;fillColor=none;" vertex="1" parent="V5urwpfPDVQoyYHqRh3s-29">
          <mxGeometry y="36" width="187" height="30" as="geometry" />
        </mxCell>
        <mxCell id="V5urwpfPDVQoyYHqRh3s-32" value="AmasarPizzaGruesa" style="swimlane;fontStyle=0;align=center;verticalAlign=top;childLayout=stackLayout;horizontal=1;startSize=22;horizontalStack=0;resizeParent=1;resizeLast=0;collapsible=1;marginBottom=0;rounded=0;shadow=0;strokeWidth=1;" vertex="1" parent="WIyWlLk6GJQsqaUBKTNV-1">
          <mxGeometry x="980" y="260" width="187" height="72" as="geometry">
            <mxRectangle x="340" y="380" width="170" height="26" as="alternateBounds" />
          </mxGeometry>
        </mxCell>
        <mxCell id="V5urwpfPDVQoyYHqRh3s-33" value="" style="line;html=1;strokeWidth=1;align=left;verticalAlign=middle;spacingTop=-1;spacingLeft=3;spacingRight=3;rotatable=0;labelPosition=right;points=[];portConstraint=eastwest;" vertex="1" parent="V5urwpfPDVQoyYHqRh3s-32">
          <mxGeometry y="22" width="187" height="14" as="geometry" />
        </mxCell>
        <mxCell id="V5urwpfPDVQoyYHqRh3s-34" value="+ amasar(): void" style="text;html=1;align=center;verticalAlign=middle;resizable=0;points=[];autosize=1;strokeColor=none;fillColor=none;" vertex="1" parent="V5urwpfPDVQoyYHqRh3s-32">
          <mxGeometry y="36" width="187" height="30" as="geometry" />
        </mxCell>
        <mxCell id="V5urwpfPDVQoyYHqRh3s-35" value="HornearPizzaDelgada" style="swimlane;fontStyle=0;align=center;verticalAlign=top;childLayout=stackLayout;horizontal=1;startSize=22;horizontalStack=0;resizeParent=1;resizeLast=0;collapsible=1;marginBottom=0;rounded=0;shadow=0;strokeWidth=1;" vertex="1" parent="WIyWlLk6GJQsqaUBKTNV-1">
          <mxGeometry x="1320" y="178" width="187" height="72" as="geometry">
            <mxRectangle x="340" y="380" width="170" height="26" as="alternateBounds" />
          </mxGeometry>
        </mxCell>
        <mxCell id="V5urwpfPDVQoyYHqRh3s-36" value="" style="line;html=1;strokeWidth=1;align=left;verticalAlign=middle;spacingTop=-1;spacingLeft=3;spacingRight=3;rotatable=0;labelPosition=right;points=[];portConstraint=eastwest;" vertex="1" parent="V5urwpfPDVQoyYHqRh3s-35">
          <mxGeometry y="22" width="187" height="14" as="geometry" />
        </mxCell>
        <mxCell id="V5urwpfPDVQoyYHqRh3s-37" value="+ hornear(): void" style="text;html=1;align=center;verticalAlign=middle;resizable=0;points=[];autosize=1;strokeColor=none;fillColor=none;" vertex="1" parent="V5urwpfPDVQoyYHqRh3s-35">
          <mxGeometry y="36" width="187" height="30" as="geometry" />
        </mxCell>
        <mxCell id="V5urwpfPDVQoyYHqRh3s-38" value="HornearPizzaIntegral" style="swimlane;fontStyle=0;align=center;verticalAlign=top;childLayout=stackLayout;horizontal=1;startSize=22;horizontalStack=0;resizeParent=1;resizeLast=0;collapsible=1;marginBottom=0;rounded=0;shadow=0;strokeWidth=1;" vertex="1" parent="WIyWlLk6GJQsqaUBKTNV-1">
          <mxGeometry x="1520" y="178" width="187" height="72" as="geometry">
            <mxRectangle x="340" y="380" width="170" height="26" as="alternateBounds" />
          </mxGeometry>
        </mxCell>
        <mxCell id="V5urwpfPDVQoyYHqRh3s-39" value="" style="line;html=1;strokeWidth=1;align=left;verticalAlign=middle;spacingTop=-1;spacingLeft=3;spacingRight=3;rotatable=0;labelPosition=right;points=[];portConstraint=eastwest;" vertex="1" parent="V5urwpfPDVQoyYHqRh3s-38">
          <mxGeometry y="22" width="187" height="14" as="geometry" />
        </mxCell>
        <mxCell id="V5urwpfPDVQoyYHqRh3s-40" value="+ hornear(): void" style="text;html=1;align=center;verticalAlign=middle;resizable=0;points=[];autosize=1;strokeColor=none;fillColor=none;" vertex="1" parent="V5urwpfPDVQoyYHqRh3s-38">
          <mxGeometry y="36" width="187" height="30" as="geometry" />
        </mxCell>
        <mxCell id="V5urwpfPDVQoyYHqRh3s-41" value="HornearPizzaGruesa" style="swimlane;fontStyle=0;align=center;verticalAlign=top;childLayout=stackLayout;horizontal=1;startSize=22;horizontalStack=0;resizeParent=1;resizeLast=0;collapsible=1;marginBottom=0;rounded=0;shadow=0;strokeWidth=1;" vertex="1" parent="WIyWlLk6GJQsqaUBKTNV-1">
          <mxGeometry x="1420" y="268" width="187" height="72" as="geometry">
            <mxRectangle x="340" y="380" width="170" height="26" as="alternateBounds" />
          </mxGeometry>
        </mxCell>
        <mxCell id="V5urwpfPDVQoyYHqRh3s-42" value="" style="line;html=1;strokeWidth=1;align=left;verticalAlign=middle;spacingTop=-1;spacingLeft=3;spacingRight=3;rotatable=0;labelPosition=right;points=[];portConstraint=eastwest;" vertex="1" parent="V5urwpfPDVQoyYHqRh3s-41">
          <mxGeometry y="22" width="187" height="14" as="geometry" />
        </mxCell>
        <mxCell id="V5urwpfPDVQoyYHqRh3s-43" value="+ hornear(): void" style="text;html=1;align=center;verticalAlign=middle;resizable=0;points=[];autosize=1;strokeColor=none;fillColor=none;" vertex="1" parent="V5urwpfPDVQoyYHqRh3s-41">
          <mxGeometry y="36" width="187" height="30" as="geometry" />
        </mxCell>
        <mxCell id="V5urwpfPDVQoyYHqRh3s-44" value="ExcepcionParametrosInvalidos" style="swimlane;fontStyle=0;align=center;verticalAlign=top;childLayout=stackLayout;horizontal=1;startSize=22;horizontalStack=0;resizeParent=1;resizeLast=0;collapsible=1;marginBottom=0;rounded=0;shadow=0;strokeWidth=1;" vertex="1" parent="WIyWlLk6GJQsqaUBKTNV-1">
          <mxGeometry x="260" y="100" width="270" height="70" as="geometry">
            <mxRectangle x="340" y="380" width="170" height="26" as="alternateBounds" />
          </mxGeometry>
        </mxCell>
        <mxCell id="V5urwpfPDVQoyYHqRh3s-45" value="" style="line;html=1;strokeWidth=1;align=left;verticalAlign=middle;spacingTop=-1;spacingLeft=3;spacingRight=3;rotatable=0;labelPosition=right;points=[];portConstraint=eastwest;" vertex="1" parent="V5urwpfPDVQoyYHqRh3s-44">
          <mxGeometry y="22" width="270" height="14" as="geometry" />
        </mxCell>
        <mxCell id="V5urwpfPDVQoyYHqRh3s-46" value="+ ExcepcionParametrosInvalidos(String mensaje)" style="text;html=1;align=center;verticalAlign=middle;resizable=0;points=[];autosize=1;strokeColor=none;fillColor=none;" vertex="1" parent="V5urwpfPDVQoyYHqRh3s-44">
          <mxGeometry y="36" width="270" height="30" as="geometry" />
        </mxCell>
        <mxCell id="V5urwpfPDVQoyYHqRh3s-48" value="Exception" style="swimlane;fontStyle=2;align=center;verticalAlign=top;childLayout=stackLayout;horizontal=1;startSize=26;horizontalStack=0;resizeParent=1;resizeLast=0;collapsible=1;marginBottom=0;rounded=0;shadow=0;strokeWidth=1;" vertex="1" parent="WIyWlLk6GJQsqaUBKTNV-1">
          <mxGeometry x="300" y="30" width="160" height="50" as="geometry">
            <mxRectangle x="230" y="140" width="160" height="26" as="alternateBounds" />
          </mxGeometry>
        </mxCell>
        <mxCell id="V5urwpfPDVQoyYHqRh3s-49" value="" style="line;html=1;strokeWidth=1;align=left;verticalAlign=middle;spacingTop=-1;spacingLeft=3;spacingRight=3;rotatable=0;labelPosition=right;points=[];portConstraint=eastwest;" vertex="1" parent="V5urwpfPDVQoyYHqRh3s-48">
          <mxGeometry y="26" width="160" height="24" as="geometry" />
        </mxCell>
      </root>
    </mxGraphModel>
  </diagram>
</mxfile>
